<svg xmlns="http://www.w3.org/2000/svg" width="152.711" height="46.304" viewBox="0 0 152.711 46.304">
  <g id="Logo_LyraTune-02" transform="translate(-120.254 -403.448)">
    <path id="Caminho_1176" data-name="Caminho 1176" d="M858.876,502.36a23.141,23.141,0,0,0-1.561,46.23v-18.8l-.031-.24a.732.732,0,0,0-1.014-.584l-6.107,2.531a.737.737,0,0,1-.731-1.266l5.247-4.031a.738.738,0,0,0,0-1.174L849.432,521a.737.737,0,0,1,.731-1.266l6.107,2.531a.738.738,0,0,0,1.014-.584l.866-6.556a.734.734,0,0,1,1.456,0l.866,6.556a.738.738,0,0,0,1.014.584l6.107-2.531a.737.737,0,0,1,.731,1.266l-5.247,4.025a.738.738,0,0,0,0,1.174l5.247,4.031a.737.737,0,0,1-.731,1.266l-6.107-2.531a.732.732,0,0,0-1.014.584l-.031.24v18.8a23.141,23.141,0,0,0-1.561-46.23Z" transform="translate(-715.476 -98.881)" fill="#FFFFFF"/>
    <path id="Caminho_1177" data-name="Caminho 1177" d="M961.888,509.126a23.142,23.142,0,0,0-33.794,31.588l13.29-13.29.147-.2a.737.737,0,0,0-.3-1.131l-6.107-2.531a.738.738,0,0,1,.381-1.413l6.556.86a.738.738,0,0,0,.829-.829l-.866-6.556a.739.739,0,0,1,1.413-.381l2.531,6.108a.738.738,0,0,0,1.131.3l5.247-4.025a.736.736,0,0,1,1.032,1.032l-4.025,5.247a.74.74,0,0,0,.3,1.13l6.108,2.531a.739.739,0,0,1-.381,1.413l-6.556-.866a.743.743,0,0,0-.829.829l.86,6.556a.739.739,0,0,1-1.413.381l-2.531-6.107a.733.733,0,0,0-1.131-.3l-.2.147-13.29,13.29a23.142,23.142,0,0,0,31.588-33.794Z" transform="translate(-748.885 -98.876)" fill="#FFFFFF"/>
    <path id="Caminho_1178" data-name="Caminho 1178" d="M1009.03,525.462a23.141,23.141,0,0,0,46.23,1.561h-18.8l-.24.031a.732.732,0,0,0-.584,1.014l2.531,6.107a.737.737,0,0,1-1.266.731l-4.031-5.247a.738.738,0,0,0-1.174,0l-4.025,5.247a.737.737,0,0,1-1.266-.731l2.531-6.107a.738.738,0,0,0-.584-1.014l-6.556-.866a.734.734,0,0,1,0-1.456l6.556-.866a.738.738,0,0,0,.584-1.014l-2.531-6.107a.737.737,0,0,1,1.266-.731l4.025,5.247a.738.738,0,0,0,1.174,0l4.031-5.247a.738.738,0,0,1,1.266.731l-2.531,6.107a.732.732,0,0,0,.584,1.014l.24.031h18.8a23.141,23.141,0,0,0-46.23,1.561Z" transform="translate(-782.294 -98.862)" fill="#FFFFFF"/>
  </g>
</svg>
