<svg xmlns="http://www.w3.org/2000/svg" width="275" height="56.956" viewBox="0 0 275 56.956">
  <g id="Logo_LyraTune-01" transform="translate(-524.22 -475.57)">
    <path id="Caminho_1167" data-name="Caminho 1167" d="M552.362,502.936l-1.625,11.886H524.22V475.58h15.642v27.135c0,.168.112.225.281.225h12.22Z" transform="translate(0 -0.007)" fill="#FFFFFF"/>
    <path id="Caminho_1168" data-name="Caminho 1168" d="M597.71,489.474l-1.85-13.9h16.425v12.95a1.064,1.064,0,0,0,2.128,0V475.57h16.425l-1.85,13.9a13.622,13.622,0,0,1-7.681,10.538c-.056,0-.112.056-.112.225v14.575H605.5V500.237c0-.168-.056-.225-.112-.225a13.627,13.627,0,0,1-7.681-10.538Z" transform="translate(-49.291)" fill="#FFFFFF"/>
    <path id="Caminho_1169" data-name="Caminho 1169" d="M730.132,504.115v10.707H714.49V475.58h20.069a13.759,13.759,0,0,1,13.736,13.736,13.346,13.346,0,0,1-2.914,8.411.174.174,0,0,0-.056.112.292.292,0,0,0,.112.225,6.892,6.892,0,0,1,2.524,5.438v11.324h-15.7V504.118a1.064,1.064,0,0,0-2.128,0Zm-.393-13.4a1.065,1.065,0,1,0,2.131,0v-2.748a1.029,1.029,0,0,0-1.064-1.064.928.928,0,0,0-1.067,1.064Z" transform="translate(-130.913 -0.007)" fill="#FFFFFF"/>
    <path id="Caminho_1170" data-name="Caminho 1170" d="M844.975,506.524v8.3H828.55l5.213-39.242h24.555l5.213,39.242H847.106v-8.3a1.064,1.064,0,1,0-2.128,0Zm0-13.508a.925.925,0,0,0,1.064,1.064,1.029,1.029,0,0,0,1.064-1.064v-4.764a1.029,1.029,0,0,0-1.064-1.064.925.925,0,0,0-1.064,1.064Z" transform="translate(-209.39 -0.007)" fill="#FFFFFF"/>
    <path id="Caminho_1171" data-name="Caminho 1171" d="M933.5,475.58l1.569,11.886h8.018c.168,0,.278.053.278.221v27.135h7.958c.012-.119.025-.234.041-.352a18.687,18.687,0,0,1,7.643-12.9V487.687c0-.168.112-.221.281-.221H967.3l1.569-11.886H933.5Z" transform="translate(-281.599 -0.007)" fill="#FFFFFF"/>
    <path id="Caminho_1172" data-name="Caminho 1172" d="M1114.369,475.592v39.242H1092.5l-2.8-20.069a.994.994,0,0,0-1.064-1.011,1.054,1.054,0,0,0-1.067,1.123v4.19a16.581,16.581,0,0,1-3.544,10.254,16.738,16.738,0,0,1-12.5,6.436,18.671,18.671,0,0,0-17.423-17.645V475.58h15.642v27.977a1,1,0,0,0,.961,1c.8.034,1.17-.3,1.17-1.061V475.58l25.453.013,2.858,20.237a1.13,1.13,0,0,0,1.011.955c.056,0,.169-.056.225-.056a1.053,1.053,0,0,0,.9-1.011v-.168l-2.8-19.956Z" transform="translate(-364.576 -0.007)" fill="#FFFFFF"/>
    <path id="Caminho_1173" data-name="Caminho 1173" d="M1290.828,502.936l-1.569,11.886H1258.93V475.58h31.9l-1.569,11.886h-13.624a1.064,1.064,0,1,0,0,2.128h11.493l-1.513,11.212h-9.98a1.065,1.065,0,0,0,0,2.131h15.193Z" transform="translate(-505.507 -0.007)" fill="#FFFFFF"/>
    <path id="Caminho_1174" data-name="Caminho 1174" d="M1375.49,480.375a4.718,4.718,0,1,1,4.717,4.795A4.671,4.671,0,0,1,1375.49,480.375Zm8.641,0a3.925,3.925,0,1,0-3.925,4A3.9,3.9,0,0,0,1384.131,480.375Zm-5.668-2.6h2.062c1.011,0,1.685.555,1.685,1.448a1.185,1.185,0,0,1-.911,1.288v.019c1.129.218.714,2.221.97,2.3v.041h-.892c-.218-.218.278-2.062-1.21-2.062h-.874v2.062h-.833v-5.094Zm.833,2.28h.874c.533,0,1.188.019,1.188-.752s-.655-.752-1.188-.752h-.874v1.507Z" transform="translate(-585.704 -0.007)" fill="#FFFFFF"/>
    <path id="Caminho_1175" data-name="Caminho 1175" d="M1026.474,561.553a15.785,15.785,0,0,0-23.051,21.544l9.066-9.066.1-.131a.5.5,0,0,0-.206-.771l-4.168-1.728a.5.5,0,0,1,.259-.964l4.474.587a.5.5,0,0,0,.565-.565l-.59-4.47a.5.5,0,0,1,.964-.259l1.728,4.168a.5.5,0,0,0,.771.206l3.578-2.745a.5.5,0,0,1,.7.705l-2.745,3.578a.505.505,0,0,0,.206.771l4.168,1.728a.5.5,0,0,1-.259.964l-4.47-.59a.5.5,0,0,0-.565.565l.587,4.474a.5.5,0,0,1-.964.259l-1.728-4.168a.5.5,0,0,0-.771-.206l-.131.1-9.066,9.066a15.785,15.785,0,0,0,21.544-23.051Z" transform="translate(-327.026 -55.979)" fill="#FFFFFF"/>
  </g>
</svg>
